
  
<svg width="50" height="50" baseProfile="tiny" xmlns="http://www.w3.org/2000/svg" viewBox="0 0 700 500" overflow="visible" xml:space="preserve" class="h-12 w-auto flex-none cursor-pointer fill-primary-500 transition-colors hover:fill-primary-600 md:h-14"><path  fill="#EC7616"  d="M255.63 280.76c23.99 0 47.98.01 71.98 0 13.72-.01 19.54-5.7 20.49-19.42 1.78-25.82-3.6-49.78-18.34-71.27-15.57-22.69-36.97-37.6-63.89-42.48-49.31-8.95-91.85 4-124.91 43-11.9 14.04-19.18 30.58-23.69 48.32-.64 2.52-1.51 3.17-3.9 3.16-22.99-.08-45.99.09-68.98-.14-12.38-.12-19.05-8.99-15.45-20.86 6.48-21.32 17.29-40.54 30.25-58.52 29.24-40.57 67.13-71.23 110.57-95.34 42.83-23.77 88.58-39.34 136.69-48.24 31.51-5.83 63.28-8.78 95.29-7.75 62.62 2.02 122.37 15.17 176.76 47.74 35.98 21.55 65.24 49.66 83.72 87.9 8.73 18.06 14.25 37.06 15.85 57.16.42 5.31.96 10.61.81 15.93-.39 13.94-8.35 21.98-22.25 22.02-34.16.1-68.31.03-102.47-.03-7.33-.01-14.57-1.1-21.61-3.12-14.53-4.17-21.92-13.92-22.61-29.15-.39-8.52.45-16.97 1.24-25.41.59-6.26 1.93-7.24 8.29-7.26 9-.03 17.99.03 26.99-.02 7.77-.04 12.73-4.67 13.44-12.42.43-4.63.84-9.27 1.3-13.9.79-7.95-3.39-12.6-11.5-12.64-9.16-.05-18.33.02-27.49-.03-5.14-.03-6.02-1.11-5.51-6.28.46-4.63 1.07-9.26 1.26-13.91.28-7.12-4.02-11.53-11.22-11.71-4.66-.12-9.33-.05-14-.02-9.09.06-13.97 4.89-14.78 14-1.97 22.19-4.08 44.36-6.21 66.53-1.38 14.29-1.66 28.5 1.06 42.71 5.26 27.42 22.68 42.44 48.93 48.61 12.69 2.99 25.62 3.82 38.6 3.86 25.49.07 50.98.03 76.48.02 3.67 0 7.32.08 10.87 1.18 7.63 2.37 11.32 8.71 9.81 16.62-2.01 10.52-7.19 19.55-13.01 28.29-26.3 39.49-60.84 70.22-101.03 94.93-46.58 28.63-97.07 46.9-150.65 57.11-34.47 6.57-69.26 9.38-104.26 7.76-59.83-2.77-116.92-16.13-168.88-47.11-36.15-21.55-65.64-49.8-84.19-88.2-7.59-15.72-13.39-32.13-14.52-49.8-.18-2.81-.1-5.68.24-8.48.95-7.83 5.83-12.24 13.72-12.27 24.99-.07 49.98-.01 74.98-.07 2.48-.01 3.84.31 4.17 3.38 5 47.09 36.12 82.52 82.22 93.85 6.29 1.55 12.62 2.82 19.13 3.07 6.67.26 11.65-3.5 12.67-10.01.82-5.25 1.48-10.54 1.87-15.84.66-8.89-3.2-13.19-12.07-14.26-17.23-2.08-32.22-8.75-44.12-21.74-10.25-11.19-15.8-24.63-17.48-39.41-2.63-23.23 1.83-44.99 16.05-64.15 26.39-35.58 79.5-42.82 111.91-15.39 10.72 9.07 17.71 20.56 21.65 33.96 1.59 5.41 1.12 6-4.64 6-29.16.02-58.32.02-87.47 0-4.33 0-8.65-.03-12.95.64-14.34 2.25-24.41 10.04-29.63 23.54-3.6 9.32.82 15.26 10.93 15.29 24.5.11 49 .07 73.49.07zM393.9 105.89c-2.5 0-4.99-.04-7.49.01-7.32.14-12.46 4.38-13.23 11.57-2.19 20.47-4.13 40.96-6.22 61.44-1.5 14.7-3.11 29.38-4.59 44.08-1.54 15.36-3.17 30.72-4.38 46.11-.55 7.05 3.62 11.39 10.57 11.71 5.31.24 10.66.27 15.97-.01 6.84-.37 11.8-5.04 12.48-11.37 1.64-15.18 3.26-30.37 4.83-45.56 3.65-35.34 7.28-70.67 10.91-106.01.67-6.49-3.85-11.73-10.38-11.94-2.81-.1-5.64-.02-8.47-.03zm36.21 174.98c2.66 0 5.33.12 7.99-.02 6.79-.38 12.09-4.83 12.79-11.09 1.47-13.2 2.73-26.42 4.05-39.63 1.83-18.17 3.55-36.35 5.5-54.5.75-6.96-2.37-11.88-9.24-12.79-6.43-.86-12.95-.88-19.38.03-5.76.81-10.01 5.26-10.76 10.85-.51 3.78-.74 7.6-1.12 11.4-1.53 15.19-3.12 30.38-4.6 45.58-1.26 12.89-2.54 25.78-3.53 38.69-.51 6.6 3.64 10.99 10.32 11.45 2.65.18 5.32.03 7.98.03zm15.91-175.9c-12.8-.06-22.97 9.87-23.04 22.5-.07 12.69 9.96 22.97 22.54 23.14 12.31.16 22.91-10.2 23.2-22.66.29-12.32-10.19-22.92-22.7-22.98z"></path></svg>